<svg xmlns="http://www.w3.org/2000/svg" width="520" height="920" viewBox="0 0 520 920" fill="none">
  <rect width="520" height="920" rx="48" fill="#0a1322"/>
  <rect x="20" y="20" width="480" height="880" rx="38" fill="#0f1b33"/>
  <rect x="192" y="40" width="136" height="18" rx="9" fill="#22385e"/>
  <rect x="46" y="96" width="428" height="708" rx="24" fill="#f5f7fb"/>
  <text x="74" y="150" fill="#0f1b33" font-family="Segoe UI, Arial" font-size="30" font-weight="700">PocketCLI settings</text>
  <rect x="74" y="190" width="372" height="64" rx="16" fill="#e9eef7"/>
  <rect x="74" y="274" width="372" height="64" rx="16" fill="#e9eef7"/>
  <rect x="74" y="358" width="372" height="64" rx="16" fill="#e9eef7"/>
  <rect x="74" y="442" width="372" height="64" rx="16" fill="#e9eef7"/>
  <text x="96" y="229" fill="#4a5e84" font-family="Segoe UI, Arial" font-size="22">Scheme / Host / Port</text>
  <text x="96" y="313" fill="#4a5e84" font-family="Segoe UI, Arial" font-size="22">Base path / Access token</text>
  <text x="96" y="397" fill="#4a5e84" font-family="Segoe UI, Arial" font-size="22">Timeout / TLS</text>
  <text x="96" y="481" fill="#4a5e84" font-family="Segoe UI, Arial" font-size="22">Language</text>
  <rect x="74" y="560" width="372" height="68" rx="20" fill="#1d4ed8"/>
  <text x="196" y="603" fill="#ffffff" font-family="Segoe UI, Arial" font-size="24">Save and Open</text>
  <rect x="46" y="826" width="428" height="42" rx="21" fill="#132241"/>
  <text x="164" y="854" fill="#9fb5d9" font-family="Segoe UI, Arial" font-size="20">Android setup sheet</text>
</svg>
